<svg width="327" height="53" viewBox="0 0 327 53" fill="none" xmlns="http://www.w3.org/2000/svg">
<path fill-rule="evenodd" clip-rule="evenodd" d="M174.212 7.38183C174.502 7.38183 174.791 7.28533 175.008 7.01996C175.298 6.68223 175.346 6.29624 175.249 5.88613C175.153 5.47602 174.912 5.18653 174.502 5.09003C174.067 4.96941 173.681 5.06591 173.368 5.37952C173.175 5.57251 173.102 5.81375 173.078 6.07912C173.006 6.77872 173.416 7.38183 174.212 7.38183ZM172.234 2.87061H173.054V4.77642C173.126 4.70404 173.199 4.65579 173.271 4.60755C173.705 4.31806 174.188 4.24568 174.67 4.34218C175.442 4.48693 175.949 5.01766 176.094 5.78963C176.19 6.29624 176.142 6.77872 175.901 7.21296C175.635 7.74369 175.177 8.03318 174.598 8.10555C174.188 8.1538 173.778 8.10555 173.416 7.91256C173.271 7.81606 173.126 7.71957 172.982 7.59894V8.03318H172.234V2.87061Z" fill="white"/>
<path fill-rule="evenodd" clip-rule="evenodd" d="M180.773 5.06621C180.435 5.06621 180.122 5.21095 179.905 5.52457C179.736 5.76581 179.687 6.03118 179.712 6.32067C179.736 6.7549 179.929 7.09264 180.339 7.28563C180.773 7.4545 181.183 7.43038 181.545 7.11676C181.859 6.87552 181.955 6.51366 181.931 6.12767C181.907 5.52457 181.449 5.06621 180.773 5.06621ZM182.028 4.87322C182.028 4.72847 182.028 4.60785 182.028 4.4631C182.028 4.41486 182.052 4.39073 182.1 4.39073C182.293 4.39073 182.486 4.39073 182.679 4.39073C182.751 4.39073 182.751 4.41486 182.751 4.48723C182.751 5.21095 182.751 5.91056 182.751 6.63428C182.751 7.09264 182.751 7.551 182.751 7.98523C182.751 8.00936 182.751 8.03348 182.751 8.05761H182.003V7.59925C181.883 7.69574 181.786 7.79224 181.666 7.86461C181.256 8.12998 180.797 8.20235 180.339 8.12998C179.47 8.00936 178.915 7.30976 178.843 6.46541C178.795 6.03118 178.867 5.62106 179.06 5.23508C179.398 4.60785 179.953 4.31836 180.677 4.31836C181.038 4.31836 181.4 4.41486 181.714 4.63197C181.835 4.68022 181.931 4.77672 182.028 4.87322Z" fill="white"/>
<path fill-rule="evenodd" clip-rule="evenodd" d="M164.73 6.24816C164.73 6.07929 164.706 5.91042 164.633 5.74155C164.32 4.9937 163.427 4.94545 162.944 5.28319C162.583 5.54856 162.414 6.05516 162.51 6.53765C162.703 7.35787 163.523 7.57499 164.102 7.2855C164.537 7.06838 164.706 6.70652 164.73 6.24816ZM165.55 8.05747H164.802V7.59911C164.778 7.59911 164.778 7.59911 164.778 7.59911C164.513 7.8886 164.175 8.05747 163.789 8.10572C163.33 8.17809 162.896 8.10572 162.486 7.86448C162.028 7.57499 161.787 7.14075 161.69 6.61002C161.618 6.19991 161.642 5.7898 161.811 5.40381C162.052 4.80071 162.51 4.43884 163.162 4.34235C163.644 4.26997 164.102 4.34235 164.513 4.60771C164.609 4.68009 164.706 4.77658 164.826 4.87308V4.41472H165.574V8.05747H165.55Z" fill="white"/>
<path fill-rule="evenodd" clip-rule="evenodd" d="M187.962 2.87061H188.782V5.91025H188.806C188.926 5.76551 189.071 5.62076 189.192 5.45189C189.481 5.11415 189.771 4.77642 190.06 4.43868C190.084 4.41455 190.109 4.39043 190.157 4.39043C190.47 4.39043 190.76 4.39043 191.074 4.39043C191.074 4.39043 191.098 4.39043 191.122 4.39043C190.615 4.96941 190.109 5.54839 189.602 6.12737C190.181 6.7546 190.76 7.38183 191.363 8.03318C191.339 8.03318 191.315 8.03318 191.291 8.03318C190.977 8.03318 190.663 8.03318 190.35 8.03318C190.302 8.03318 190.253 8.00906 190.229 7.98493C189.771 7.50245 189.337 6.99584 188.878 6.51336C188.854 6.48923 188.83 6.46511 188.806 6.44098V8.03318H187.962V2.87061Z" fill="white"/>
<path fill-rule="evenodd" clip-rule="evenodd" d="M187.069 4.873C186.901 5.06599 186.732 5.23486 186.563 5.40373C186.032 4.89712 185.212 4.99362 184.826 5.42786C184.464 5.86209 184.464 6.60994 184.85 7.04418C185.212 7.45429 186.056 7.55078 186.587 6.99593C186.756 7.18892 186.925 7.35779 187.094 7.55078C186.804 7.81615 186.49 8.00914 186.104 8.08152C185.67 8.15389 185.236 8.12976 184.826 7.96089C184.271 7.74378 183.909 7.33367 183.789 6.73056C183.644 6.17571 183.692 5.62085 184.006 5.11424C184.295 4.63176 184.729 4.39052 185.284 4.29402C185.936 4.19752 186.539 4.34227 187.021 4.80063C187.045 4.84888 187.045 4.84888 187.069 4.873Z" fill="white"/>
<path fill-rule="evenodd" clip-rule="evenodd" d="M169.603 8.05756H168.783V4.39069H169.531V4.92142H169.555C169.821 4.51131 170.182 4.29419 170.665 4.29419C171.027 4.29419 171.389 4.41481 171.582 4.6078C171.533 4.72842 171.461 4.82492 171.389 4.94554C171.34 5.06616 171.268 5.16266 171.22 5.25916C171.123 5.21091 171.027 5.16266 170.906 5.11441C170.303 4.92142 169.772 5.25916 169.652 5.88638C169.628 6.00701 169.628 6.15175 169.628 6.27237C169.628 6.8031 169.628 7.33384 169.628 7.88869V8.05756H169.603Z" fill="white"/>
<path fill-rule="evenodd" clip-rule="evenodd" d="M177.081 8.0573H177.902V2.87061H177.081V8.0573Z" fill="white"/>
<path fill-rule="evenodd" clip-rule="evenodd" d="M167.576 8.0575H166.756V4.39062C166.78 4.39062 166.804 4.39062 166.829 4.39062C167.046 4.39062 167.287 4.39062 167.504 4.39062C167.552 4.39062 167.576 4.41475 167.576 4.463C167.576 5.64508 167.576 6.82717 167.576 7.98513C167.576 8.00925 167.576 8.03338 167.576 8.0575Z" fill="white"/>
<path fill-rule="evenodd" clip-rule="evenodd" d="M166.636 3.32887C166.636 3.01526 166.854 2.82227 167.167 2.82227C167.481 2.82227 167.698 3.03938 167.698 3.32887C167.698 3.61836 167.481 3.83548 167.167 3.83548C166.878 3.85961 166.636 3.64249 166.636 3.32887Z" fill="white"/>
<path fill-rule="evenodd" clip-rule="evenodd" d="M165.984 14.1367C165.959 14.0402 165.959 13.8954 165.935 13.7507C165.791 13.1958 165.477 12.8339 164.922 12.7133C164.343 12.5686 163.837 12.6892 163.426 13.1476C163.113 13.5335 163.016 13.9678 163.089 14.4503C163.258 15.56 164.367 15.9218 165.163 15.56C165.742 15.2946 165.959 14.8121 165.984 14.1367ZM162.968 16.332L162.896 16.7903C162.896 16.8144 162.872 16.8386 162.847 16.8386H161.738C161.714 16.8386 161.689 16.8144 161.689 16.7903V9.38419C161.689 9.36006 161.714 9.33594 161.738 9.33594H163.04C163.065 9.33594 163.089 9.36006 163.089 9.38419V12.062C163.089 12.062 163.137 12.0137 163.161 11.9896C163.716 11.5071 164.367 11.3382 165.067 11.4106C165.791 11.4589 166.37 11.7725 166.828 12.3273C167.142 12.7374 167.31 13.1958 167.383 13.7024C167.455 14.3296 167.407 14.9569 167.117 15.5359C166.707 16.3802 166.008 16.8386 165.067 16.9109C164.464 16.9592 163.909 16.8627 163.402 16.5249C163.282 16.4526 163.185 16.3561 163.065 16.2596C163.016 16.2596 162.968 16.2837 162.968 16.332Z" fill="#F56563"/>
<path fill-rule="evenodd" clip-rule="evenodd" d="M175.803 14.209C175.803 14.2813 175.827 14.3778 175.827 14.4743C176.02 15.7047 177.322 15.97 178.094 15.4634C178.649 15.0774 178.842 14.3296 178.649 13.6782C178.336 12.6409 177.202 12.4962 176.55 12.8339C176.044 13.1234 175.827 13.6059 175.803 14.209ZM178.842 12.0378L178.915 11.5794C178.915 11.5553 178.939 11.5312 178.963 11.5312H180.073C180.097 11.5312 180.121 11.5553 180.121 11.5794V16.742C180.121 16.7661 180.097 16.7903 180.073 16.7903H178.963C178.939 16.7903 178.915 16.7661 178.915 16.742C178.89 16.549 178.866 16.3802 178.818 16.163C178.794 16.1872 178.77 16.2113 178.746 16.2354C178.263 16.6938 177.684 16.8868 177.033 16.9109C176.189 16.9109 175.465 16.6214 174.958 15.9459C174.621 15.5117 174.476 15.0051 174.428 14.4743C174.379 13.8471 174.452 13.244 174.765 12.6892C175.175 11.9413 175.803 11.5312 176.623 11.4106C177.274 11.3141 177.877 11.4347 178.432 11.7966C178.553 11.8689 178.649 11.9654 178.746 12.0619C178.77 12.1102 178.818 12.086 178.842 12.0378Z" fill="#F56563"/>
<path fill-rule="evenodd" clip-rule="evenodd" d="M169.676 13.7026H172.258C172.282 13.7026 172.33 13.6785 172.306 13.6302C172.258 13.2684 172.089 12.9789 171.751 12.7859C171.437 12.5929 171.1 12.5688 170.738 12.5929C170.159 12.6411 169.7 13.0271 169.604 13.6302C169.604 13.6785 169.628 13.7026 169.676 13.7026ZM173.609 14.6676H169.652C169.628 14.6676 169.58 14.6917 169.604 14.74C169.652 14.9812 169.749 15.1742 169.918 15.3431C170.183 15.6084 170.521 15.729 170.883 15.7773C171.413 15.8255 172.065 15.7049 172.547 15.3431C172.571 15.3189 172.595 15.3189 172.619 15.3431C172.74 15.4637 172.861 15.5843 172.981 15.6808C173.102 15.8014 173.223 15.8979 173.367 16.0185C173.391 16.0427 173.391 16.0909 173.367 16.115C173.223 16.2356 173.126 16.3321 173.005 16.4045C172.185 16.9594 171.293 17.08 170.328 16.9111C169.676 16.7905 169.097 16.501 168.687 15.9703C168.35 15.5602 168.181 15.0777 168.157 14.547C168.108 13.9439 168.181 13.3407 168.47 12.7859C168.856 12.0622 169.483 11.6521 170.255 11.4832C170.883 11.3626 171.51 11.3867 172.113 11.6279C172.981 11.9415 173.488 12.5929 173.657 13.5096C173.729 13.8715 173.729 14.2333 173.681 14.6193C173.657 14.6435 173.633 14.6676 173.609 14.6676Z" fill="#F56563"/>
<path fill-rule="evenodd" clip-rule="evenodd" d="M192.98 19.2029C193.1 18.9376 193.752 17.4177 193.993 16.8629C194.017 16.8146 194.017 16.7181 193.993 16.6458C193.414 15.1983 192.304 12.3999 192.015 11.6762C191.991 11.6038 192.039 11.5073 192.135 11.5073C192.425 11.5073 193.028 11.5073 193.366 11.5073C193.438 11.5073 193.511 11.5556 193.535 11.6279C193.897 12.617 194.572 14.4987 194.789 15.0536C194.813 15.1018 194.886 15.1018 194.91 15.0536C195.175 14.3781 196.237 11.7003 196.285 11.5797C196.309 11.5556 196.333 11.5073 196.381 11.5073C196.767 11.5073 197.491 11.5073 197.756 11.5073C197.805 11.5073 197.829 11.5556 197.829 11.6038C197.467 12.424 194.861 18.4792 194.62 19.0582C194.572 19.1547 194.524 19.2029 194.427 19.2029C194.017 19.2029 193.583 19.2029 193.173 19.2029H192.98V19.2029Z" fill="#F56563"/>
<path fill-rule="evenodd" clip-rule="evenodd" d="M181.497 11.5315H182.8C182.824 11.5315 182.848 11.5556 182.848 11.5797C182.848 11.9175 182.848 13.582 182.848 14.4264C182.848 14.74 182.897 15.0295 183.09 15.2707C183.379 15.6567 183.789 15.7532 184.248 15.6567C184.802 15.5361 185.164 15.1019 185.212 14.5229C185.212 14.4023 185.237 14.2575 185.237 14.1369C185.237 13.3891 185.237 11.9175 185.237 11.6039C185.237 11.5797 185.261 11.5556 185.285 11.5556H186.588C186.612 11.5556 186.636 11.5797 186.636 11.6039V16.7664C186.636 16.7906 186.612 16.8147 186.588 16.8147H185.478C185.454 16.8147 185.43 16.7906 185.43 16.7664C185.405 16.5976 185.381 16.4287 185.333 16.2357C185.309 16.2598 185.285 16.2598 185.285 16.2598C184.706 16.8388 183.982 17.0077 183.21 16.8871C182.293 16.7423 181.642 16.091 181.473 15.126C181.425 14.9089 181.425 14.6676 181.425 14.4505C181.425 13.6062 181.425 11.9175 181.425 11.6039C181.449 11.5797 181.473 11.5315 181.497 11.5315Z" fill="#F56563"/>
<path fill-rule="evenodd" clip-rule="evenodd" d="M188.565 12.7133H187.745C187.721 12.7133 187.697 12.6892 187.697 12.6651V11.6277C187.697 11.6036 187.721 11.5795 187.745 11.5795H188.565C188.589 11.5795 188.614 11.5554 188.614 11.5312V10.3009C188.614 10.2768 188.638 10.2527 188.662 10.2527C189.096 10.2044 189.53 10.1562 189.964 10.1079C189.989 10.1079 190.037 10.132 190.037 10.1562V11.483C190.037 11.5071 190.061 11.5312 190.085 11.5312H191.388C191.412 11.5312 191.436 11.5554 191.436 11.5795V12.6409C191.436 12.6651 191.412 12.6892 191.388 12.6892H190.085C190.061 12.6892 190.037 12.7133 190.037 12.7374C190.037 13.0269 190.037 14.2814 190.037 14.9086C190.037 15.0051 190.037 15.1016 190.061 15.174C190.157 15.5358 190.471 15.7288 190.881 15.6323C191.026 15.6082 191.147 15.56 191.291 15.5358C191.315 15.5358 191.364 15.5358 191.364 15.5841C191.484 15.8977 191.581 16.2354 191.701 16.5732C191.701 16.5973 191.701 16.6456 191.677 16.6456C191.605 16.6697 191.508 16.7179 191.436 16.7421C190.929 16.9109 190.423 16.9592 189.916 16.8386C189.265 16.7179 188.879 16.3078 188.734 15.6565C188.686 15.3911 188.662 15.1257 188.638 14.8604C188.638 14.2573 188.638 13.0269 188.638 12.7374C188.614 12.7374 188.589 12.7133 188.565 12.7133Z" fill="#F56563"/>
<path fill-rule="evenodd" clip-rule="evenodd" d="M178.312 23.087C178.336 23.9313 178.842 24.5103 179.59 24.6068C180.169 24.6792 180.797 24.438 181.062 23.8348C181.207 23.5212 181.255 23.2076 181.207 22.8458C181.11 21.9049 180.242 21.3742 179.349 21.6154C178.698 21.8084 178.312 22.3874 178.312 23.087ZM178.263 18.238C178.312 18.238 178.336 18.2622 178.336 18.3104V20.9399C178.408 20.8917 178.481 20.8676 178.529 20.8193C179.687 19.9026 182.099 20.1197 182.582 22.3633C182.751 23.1594 182.678 23.9555 182.268 24.6551C181.81 25.427 181.134 25.813 180.242 25.8613C179.614 25.8854 179.035 25.7648 178.529 25.3547C178.456 25.2823 178.36 25.2099 178.263 25.1376L178.167 25.6683C178.167 25.7165 178.119 25.7648 178.07 25.7648H177.057C177.009 25.7648 176.961 25.7165 176.961 25.6683V18.3345C176.961 18.2863 176.985 18.2622 177.033 18.2622L178.263 18.238Z" fill="#F56563"/>
<path fill-rule="evenodd" clip-rule="evenodd" d="M174.211 20.457H175.369C175.442 20.457 175.514 20.5294 175.514 20.6018V25.6679C175.514 25.7161 175.49 25.7402 175.442 25.7402L174.356 25.7644C174.332 25.7644 174.284 25.7402 174.284 25.7161L174.187 25.2095C174.115 25.2577 174.067 25.306 174.018 25.3542C173.343 25.9091 172.571 26.0538 171.751 25.8126C171.051 25.6196 170.617 25.113 170.4 24.4375C170.327 24.1722 170.255 23.8827 170.255 23.6173C170.231 22.773 170.255 21.1566 170.255 20.6741C170.255 20.6018 170.327 20.5294 170.4 20.5294H171.558C171.63 20.5294 171.702 20.5777 171.702 20.6741C171.702 21.1325 171.702 22.6041 171.702 23.3037C171.702 23.5208 171.726 23.7379 171.775 23.9309C171.895 24.3893 172.33 24.6788 172.812 24.6788C173.463 24.6788 173.922 24.2928 174.042 23.6414C174.067 23.4967 174.067 23.3278 174.091 23.1589C174.091 22.5076 174.091 21.1084 174.091 20.65C174.091 20.5053 174.139 20.457 174.211 20.457Z" fill="#F56563"/>
<path fill-rule="evenodd" clip-rule="evenodd" d="M166.564 21.1568C166.033 21.6875 166.25 21.4704 165.719 22.0011C165.285 21.6393 164.827 21.4945 164.272 21.591C163.934 21.6393 163.645 21.8082 163.428 22.0735C162.945 22.6284 162.969 23.5933 163.452 24.1482C163.765 24.4859 164.176 24.6307 164.634 24.6307C165.044 24.6307 165.237 24.5342 165.816 24.1241L166.636 25.0167C166.154 25.4992 165.575 25.7886 164.899 25.861C164.32 25.9093 163.765 25.861 163.211 25.6439C162.294 25.2579 161.811 24.5342 161.667 23.5451C161.594 23.1109 161.642 22.6525 161.763 22.2424C162.004 21.3739 162.559 20.7949 163.404 20.5296C164.296 20.2401 165.165 20.2642 166.009 20.7708C166.226 20.8432 166.395 20.9638 166.564 21.1568Z" fill="#F56563"/>
<path fill-rule="evenodd" clip-rule="evenodd" d="M167.552 25.6442V18.3104C167.552 18.2622 167.576 18.238 167.624 18.238H168.879C168.927 18.238 168.951 18.2622 168.951 18.3104V25.62C168.951 25.6683 168.927 25.6924 168.879 25.6924H167.624C167.576 25.7165 167.552 25.6924 167.552 25.6442Z" fill="#F56563"/>
<path fill-rule="evenodd" clip-rule="evenodd" d="M143.38 20.3126C140.027 20.3126 137.301 17.5865 137.301 14.2333C137.301 10.88 140.027 8.15397 143.38 8.15397C146.734 8.15397 149.46 10.88 149.46 14.2333C149.46 17.5865 146.758 20.3126 143.38 20.3126ZM143.38 0C139.689 0 136.312 1.3992 133.803 3.71512L130.257 0.192994C129.847 -0.217117 129.171 0.0723722 129.171 0.651353V14.2333C129.171 22.0736 135.54 28.4424 143.38 28.4424C147.071 28.4424 150.449 27.0432 152.958 24.7273L156.48 28.2494C156.89 28.6595 157.565 28.37 157.565 27.7911V14.2091C157.59 6.36878 151.221 0 143.38 0Z" fill="#F56563"/>
<path d="M130.299 50.4424V43.1697H132.891C133.457 43.1697 133.926 43.2726 134.298 43.4786C134.669 43.6846 134.947 43.9663 135.132 44.3238C135.317 44.6789 135.409 45.079 135.409 45.5241C135.409 45.9715 135.316 46.374 135.129 46.7314C134.944 47.0866 134.665 47.3683 134.29 47.5766C133.919 47.7826 133.451 47.8856 132.888 47.8856H131.105V46.9552H132.788C133.146 46.9552 133.436 46.8936 133.658 46.7705C133.881 46.645 134.044 46.4746 134.148 46.2591C134.253 46.0437 134.305 45.7987 134.305 45.5241C134.305 45.2494 134.253 45.0056 134.148 44.7925C134.044 44.5795 133.88 44.4126 133.655 44.2918C133.432 44.1711 133.139 44.1107 132.774 44.1107H131.396V50.4424H130.299ZM138.927 50.4424V43.1697H141.52C142.083 43.1697 142.551 43.2667 142.922 43.4608C143.296 43.655 143.576 43.9237 143.76 44.267C143.945 44.6079 144.037 45.002 144.037 45.4495C144.037 45.8946 143.944 46.2864 143.757 46.6249C143.572 46.9611 143.293 47.2227 142.919 47.4097C142.547 47.5967 142.08 47.6903 141.516 47.6903H139.552V46.7456H141.417C141.772 46.7456 142.061 46.6948 142.283 46.593C142.508 46.4912 142.673 46.3432 142.777 46.1491C142.881 45.9549 142.933 45.7217 142.933 45.4495C142.933 45.1749 142.88 44.9369 142.773 44.7357C142.669 44.5345 142.505 44.3806 142.28 44.2741C142.057 44.1652 141.765 44.1107 141.403 44.1107H140.025V50.4424H138.927ZM142.518 47.1611L144.314 50.4424H143.064L141.303 47.1611H142.518ZM147.605 50.4424V43.1697H152.164V44.1143H148.702V46.3302H151.926V47.2712H148.702V49.4978H152.207V50.4424H147.605ZM159.829 45.0802C159.791 44.744 159.634 44.4836 159.36 44.2989C159.085 44.1119 158.74 44.0184 158.323 44.0184C158.025 44.0184 157.767 44.0657 157.549 44.1604C157.331 44.2528 157.162 44.3806 157.041 44.5439C156.923 44.7049 156.863 44.8884 156.863 45.0944C156.863 45.2672 156.904 45.4163 156.984 45.5418C157.067 45.6673 157.175 45.7726 157.307 45.8579C157.442 45.9407 157.587 46.0106 157.74 46.0674C157.894 46.1218 158.042 46.1668 158.184 46.2023L158.895 46.387C159.127 46.4438 159.365 46.5207 159.608 46.6178C159.852 46.7149 160.078 46.8427 160.287 47.0013C160.495 47.1599 160.663 47.3564 160.791 47.5908C160.921 47.8252 160.986 48.1057 160.986 48.4324C160.986 48.8444 160.88 49.2101 160.667 49.5297C160.456 49.8493 160.149 50.1015 159.747 50.2861C159.347 50.4708 158.863 50.5631 158.294 50.5631C157.75 50.5631 157.279 50.4767 156.881 50.3039C156.483 50.1311 156.172 49.886 155.947 49.5688C155.722 49.2492 155.598 48.8704 155.574 48.4324H156.675C156.696 48.6952 156.782 48.9142 156.931 49.0894C157.082 49.2622 157.275 49.3912 157.51 49.4765C157.746 49.5593 158.006 49.6008 158.287 49.6008C158.597 49.6008 158.873 49.5522 159.115 49.4552C159.359 49.3557 159.55 49.2184 159.69 49.0432C159.83 48.8657 159.9 48.6585 159.9 48.4218C159.9 48.2064 159.838 48.03 159.715 47.8927C159.594 47.7554 159.43 47.6417 159.221 47.5518C159.015 47.4618 158.782 47.3825 158.522 47.3138L157.662 47.0795C157.08 46.9208 156.618 46.6876 156.277 46.3799C155.939 46.0721 155.77 45.6649 155.77 45.1583C155.77 44.7393 155.883 44.3735 156.11 44.061C156.338 43.7485 156.646 43.5058 157.034 43.333C157.422 43.1578 157.86 43.0702 158.348 43.0702C158.84 43.0702 159.275 43.1566 159.651 43.3295C160.03 43.5023 160.328 43.7402 160.546 44.0432C160.764 44.3439 160.877 44.6895 160.887 45.0802H159.829ZM164.529 50.4424V43.1697H169.089V44.1143H165.627V46.3302H168.851V47.2712H165.627V49.4978H169.132V50.4424H164.529ZM178.657 43.1697V50.4424H177.648L173.951 45.1086H173.884V50.4424H172.787V43.1697H173.802L177.503 48.5106H177.57V43.1697H178.657ZM182.131 44.1143V43.1697H187.759V44.1143H185.49V50.4424H184.396V44.1143H182.131ZM195.201 45.0802C195.164 44.744 195.007 44.4836 194.733 44.2989C194.458 44.1119 194.112 44.0184 193.696 44.0184C193.398 44.0184 193.139 44.0657 192.922 44.1604C192.704 44.2528 192.535 44.3806 192.414 44.5439C192.295 44.7049 192.236 44.8884 192.236 45.0944C192.236 45.2672 192.277 45.4163 192.357 45.5418C192.44 45.6673 192.548 45.7726 192.68 45.8579C192.815 45.9407 192.96 46.0106 193.113 46.0674C193.267 46.1218 193.415 46.1668 193.557 46.2023L194.268 46.387C194.5 46.4438 194.737 46.5207 194.981 46.6178C195.225 46.7149 195.451 46.8427 195.66 47.0013C195.868 47.1599 196.036 47.3564 196.164 47.5908C196.294 47.8252 196.359 48.1057 196.359 48.4324C196.359 48.8444 196.253 49.2101 196.04 49.5297C195.829 49.8493 195.522 50.1015 195.12 50.2861C194.72 50.4708 194.236 50.5631 193.667 50.5631C193.123 50.5631 192.652 50.4767 192.254 50.3039C191.856 50.1311 191.545 49.886 191.32 49.5688C191.095 49.2492 190.971 48.8704 190.947 48.4324H192.048C192.069 48.6952 192.155 48.9142 192.304 49.0894C192.455 49.2622 192.648 49.3912 192.883 49.4765C193.119 49.5593 193.379 49.6008 193.66 49.6008C193.97 49.6008 194.246 49.5522 194.488 49.4552C194.732 49.3557 194.923 49.2184 195.063 49.0432C195.203 48.8657 195.273 48.6585 195.273 48.4218C195.273 48.2064 195.211 48.03 195.088 47.8927C194.967 47.7554 194.803 47.6417 194.594 47.5518C194.388 47.4618 194.155 47.3825 193.895 47.3138L193.035 47.0795C192.453 46.9208 191.991 46.6876 191.65 46.3799C191.312 46.0721 191.143 45.6649 191.143 45.1583C191.143 44.7393 191.256 44.3735 191.483 44.061C191.711 43.7485 192.018 43.5058 192.407 43.333C192.795 43.1578 193.233 43.0702 193.721 43.0702C194.213 43.0702 194.648 43.1566 195.024 43.3295C195.403 43.5023 195.701 43.7402 195.919 44.0432C196.137 44.3439 196.25 44.6895 196.26 45.0802H195.201Z" fill="white"/>
</svg>
